PathFileType	4	(X/Y/Z)	C:/Users/beibeiliu/ov580/test_trc/User3\sequence.39_training_dense_right.trc
DataRate	CameraRate	NumFrames	NumMarkers	Units	OrigDataRate	OrigDataStartFrame	OrigNumFrames
120	120	16	19	mm	120	118	235
Frame#	Time	ThumbCMC			ThumbMCP			ThumbIP			ThumbTip			IndexMCP			IndexPIP			IndexTip			MiddleMCP			MiddlePIP			MiddleTip			RingMCP			RingPIP			RingTip			PinkyMCP			PinkyPIP			PinkyTip			BackHand1			BackHand2			BackHand3	
		X0	Y0	Z0	X1	Y1	Z1	X2	Y2	Z2	X3	Y3	Z3	X4	Y4	Z4	X5	Y5	Z5	X6	Y6	Z6	X7	Y7	Z7	X8	Y8	Z8	X9	Y9	Z9	X10	Y10	Z10	X11	Y11	Z11	X12	Y12	Z12	X13	Y13	Z13	X14	Y14	Z14	X15	Y15	Z15	X16	Y16	Z16	X17	Y17	Z17	X18	Y18	Z18	
117	0.975	179.687	-18.9912	48.8378	189.772	-4.9215	22.8735	185.676	1.05067	-6.52755	163.147	-7.81245	-20.4506	177.65	-31.3064	-30.8042	152.775	-13.1317	-47.1539	143.364	-3.89384	-19.0655	156.304	-39.2223	-39.781	133.216	-19.2417	-39.345	130.237	-19.9313	-0.540214	143.994	-54.0697	-32.7302	121.713	-33.711	-34.7191	124.295	-25.2109	-2.16163	138.328	-70.8971	-22.3543	120.793	-54.1534	-37.6837	108.478	-36.2442	-23.2389	162.737	-77.468	20.5346	160.455	-77.7358	52.2276	183.112	-54.3221	33.9259	
118	0.983333	181.654	-13.7373	37.7299	190.172	-1.63681	7.84665	182.602	1.05631	-21.1628	160.126	-9.50419	-37.2463	164.214	-29.3658	-42.9996	137.859	-12.5219	-45.8774	136.896	-7.98316	-13.3701	148.097	-48.4219	-38.7594	121.387	-22.9705	-36.0364	130.166	-23.4874	0.940513	136.788	-62.3456	-29.7598	110.535	-44.1161	-28.8312	123.366	-30.1779	1.86821	139.932	-75.8885	-20.3409	121.108	-61.2102	-32.7771	107.514	-49.5694	-6.13307	169.038	-74.9221	15.6841	167.981	-75.1073	50.1301	187.521	-48.4282	28.3728	
119	0.991667	176.26	-14.2084	41.345	181.488	-2.88676	15.7406	185.626	3.5699	-16.4244	167.562	-6.31147	-33.6782	164.404	-30.7121	-36.8487	140.97	-11.5199	-45.0721	136.435	-7.96418	-8.57389	149.728	-46.7702	-36.8564	123.015	-26.0048	-36.7196	129.484	-22.8885	4.11499	136.716	-62.6453	-33.5853	113.126	-42.0301	-30.245	121.187	-30.4857	-2.66081	139.105	-76.67	-20.3471	121.536	-63.0114	-34.3942	107.489	-50.7344	-7.17569	165.348	-79.4979	17.1077	163.785	-76.3693	49.4341	182.626	-48.844	33.307	
120	1	171.557	-18.426	45.3661	176.842	-3.11862	16.0917	176.019	4.58017	-14.4097	172.651	11.3022	-28.9658	171.368	-21.4746	-35.9619	147.358	-0.73328	-39.0161	139.969	-3.54497	-6.52479	154.993	-33.9561	-38.9024	128.856	-15.5858	-35.6642	129.221	-28.1613	3.66459	143.359	-49.2341	-35.5906	119.36	-33.0154	-34.1515	120.588	-30.9564	0.13972	130.889	-69.9826	-26.7694	112.058	-50.4405	-34.6724	109.394	-36.4137	-10.246	165.502	-77.501	11.5301	157.791	-80.6136	45.6197	180.505	-52.5154	33.4748	
121	1.00833	168.812	-15.4039	41.0771	173.615	-2.42161	12.5975	169.756	-3.85181	-18.9575	162.682	-2.76237	-39.7505	167.425	-21.7552	-37.0133	141.222	-2.6971	-38.8684	135.756	-12.3781	-7.13087	152.815	-34.3671	-42.9333	126.626	-19.8213	-39.5749	129.02	-24.1021	-0.576039	140.168	-54.3038	-35.4788	116.09	-33.8455	-31.4681	122.176	-32.9668	1.57634	126.656	-73.5479	-29.0122	111.486	-47.6961	-34.3996	109.88	-33.4707	-10.3611	163.863	-77.3001	12.0172	157.6	-81.8649	44.2876	180.715	-48.3506	28.9177	
122	1.01667	168.046	-10.45	35.2244	176.16	1.13679	5.13557	169.902	-5.16842	-23.7322	151.638	-17.1951	-39.0064	162.221	-26.7592	-40.0141	134.246	-12.4086	-45.4337	132.406	-14.024	-8.99138	146.551	-44.0433	-41.6034	118.003	-25.3943	-34.147	126.892	-22.9076	4.4986	137.591	-56.5573	-36.5804	111.853	-40.8314	-31.6225	115.989	-31.8486	3.63211	125.487	-79.4811	-25.3883	108.031	-60.2263	-33.1889	107.081	-36.5273	-16.258	165.599	-73.7205	15.6691	161.057	-75.46	46.5616	176.604	-44.979	30.0026	
123	1.025	173.092	-9.67178	35.0815	179.221	-1.57563	6.32917	166.044	-8.52801	-25.4617	143.426	-25.7443	-27.8876	161.057	-33.5442	-39.1919	134.035	-16.8194	-48.7155	134.355	-6.1151	-16.0908	143.306	-45.1448	-43.6688	118.71	-28.1231	-39.8906	119.122	-23.8543	-0.293249	130.991	-61.8539	-31.1039	110.187	-39.2149	-30.6838	115.073	-24.0192	1.40529	122.672	-75.1669	-20.7255	107.285	-55.8122	-25.461	115.872	-38.7342	1.73117	163.897	-72.9862	17.7309	161.215	-71.9953	46.9884	179.002	-47.3436	26.7771	
124	1.03333	168.507	-18.2688	43.9041	178.022	-0.307143	22.689	166.807	-1.69014	-10.5675	146.454	-13.1074	-17.284	173.951	-24.7612	-36.5173	154.157	-11.8287	-56.7798	133.514	0.966	-34.3496	150.94	-31.5244	-39.3466	122.935	-15.099	-36.9299	121.858	-27.5315	1.20805	138.603	-54.6711	-33.2728	115.45	-34.534	-35.1098	116.77	-30.5639	0.238099	138.467	-64.5883	-27.0653	117.435	-54.2691	-38.6118	103.139	-44.2432	-14.1788	164.053	-74.2708	12.7517	162.898	-75.0554	47.0057	177.981	-44.7642	35.1989	
125	1.04167	171.973	-15.7541	44.6269	179.482	0.346985	17.6872	166.422	1.37345	-12.7471	143.17	-14.4544	-18.271	167.791	-29.8394	-39.1374	147.587	-14.4479	-56.8628	133.721	-2.59342	-25.9973	147.645	-38.0787	-40.3914	121.988	-17.6545	-41.6252	117.484	-25.453	-2.7588	138.151	-57.0595	-31.8725	112.302	-41.3375	-38.837	110.537	-25.9366	-7.60512	138.654	-68.99	-23.0341	117.051	-56.209	-36.4749	103.212	-42.5889	-18.8235	163.178	-72.5952	13.518	165.933	-73.8528	43.513	182.217	-45.6078	30.0111	
126	1.05	175.256	-12.9905	37.2104	183.221	1.80942	9.02322	164.043	-7.50355	-17.3555	139.887	-21.7885	-21.2338	167.279	-27.3066	-41.252	140.516	-13.4794	-54.7347	130.395	-6.24105	-25.8652	145.512	-40.9894	-42.9049	119.792	-24.4597	-43.8231	122.704	-23.0315	-0.901083	135.492	-63.421	-31.8379	109.926	-50.7846	-36.2519	114.033	-29.6703	-6.58776	136.544	-75.0066	-15.6954	124.465	-64.1893	-37.1736	103.618	-47.9271	-28.6736	163.917	-74.269	19.6448	166.666	-69.6814	51.3184	180.837	-43.0295	31.7782	
127	1.05833	170.065	-13.9066	41.883	178.13	2.03794	11.4563	169.212	1.53691	-18.0068	148.917	-10.6813	-30.5261	161.961	-25.504	-38.1809	130.364	-9.99763	-45.7941	127.351	-11.2848	-13.2246	143.582	-39.4658	-40.6848	114.556	-26.2849	-35.5407	122.669	-25.3651	2.00421	136.581	-59.2558	-31.8746	109.879	-40.7336	-30.4339	116.622	-34.2144	2.22787	136.589	-71.6834	-21.0763	113.638	-55.7565	-30.1858	104.734	-51.2867	-1.03889	167.566	-73.83	15.2137	167.525	-74.6677	42.801	181.717	-41.1342	26.4032	
128	1.06667	171.54	-17.1003	31.5284	174.555	-0.129228	5.41162	169.394	2.24236	-23.8178	153.818	-6.36194	-42.763	159.412	-27.5253	-40.9389	133.261	-6.04229	-41.7804	127.953	-7.82114	-9.75219	141.539	-43.8546	-41.16	118.133	-24.4598	-37.3331	128.729	-20.8156	1.09008	133.93	-61.8719	-32.6584	106.561	-42.4628	-32.9491	116.816	-30.4953	-2.6992	129.369	-74.544	-21.3024	108.462	-58.8719	-33.7381	98.968	-42.519	-7.54343	160.866	-75.0921	13.1109	162.124	-74.4378	45.9289	180.566	-47.364	27.4907	
129	1.075	162.679	-16.4624	34.8629	164.743	-2.83705	5.91553	163.054	3.50276	-20.7419	156.487	2.12989	-44.8603	159.072	-26.3771	-39.2872	130.702	-7.1772	-41.4881	129.372	-10.7567	-9.6267	143.216	-40.58	-41.6165	116.178	-24.6318	-35.7997	122.35	-24.152	1.16273	133.915	-57.2593	-32.7245	106.56	-37.7297	-23.7935	114.97	-33.4128	4.45168	128.983	-74.8093	-25.7861	106.224	-56.4787	-34.9961	99.1338	-39.9946	-11.6678	160.812	-77.3858	10.2105	159.953	-75.7675	45.1806	178.321	-47.1455	25.4177	
130	1.08333	158.333	-17.9192	36.5614	158.969	0.366478	10.5542	152.542	2.42177	-19.2351	149.657	7.11717	-42.5893	157.976	-19.43	-39.2701	131.577	-2.45937	-41.0876	129.212	-4.41781	-8.2132	146.789	-31.6297	-39.6035	115.271	-16.3991	-33.3663	122.216	-30.8035	4.52867	132.927	-50.7665	-40.79	110.029	-34.8777	-37.6829	111.668	-34.1459	-2.93881	123.519	-72.9848	-29.1252	102.389	-54.7393	-34.7532	105.451	-36.1738	-7.6025	158.976	-76.8722	6.27795	155.494	-78.7522	39.7077	176.812	-46.9905	26.0786	
131	1.09167	156.69	-18.0395	36.5344	156.448	-2.99038	3.607	147.731	-2.60207	-23.2021	143.881	5.02778	-43.2631	153.942	-26.4158	-37.776	127.61	-3.25407	-40.1106	126.978	-10.9127	-4.14428	140.508	-34.735	-40.8181	110.292	-20.8989	-33.2117	118.467	-28.6778	3.68902	130.212	-53.2747	-35.5411	102.475	-36.0541	-29.1623	110.401	-34.7593	1.73412	120.027	-71.5858	-26.8949	99.0517	-53.5798	-31.0502	101.758	-34.6878	-4.21071	155.981	-75.7653	12.6293	154.88	-81.6482	38.9326	172.413	-49.5598	30.2883	
132	1.1	153.782	-10.5655	29.406	148.11	-1.91154	-0.19705	141.428	-4.53455	-30.0553	135.104	-2.19257	-51.2165	145.935	-18.9632	-42.9179	117.134	-7.72591	-36.6891	116.598	-15.8589	-4.16264	132.604	-38.9424	-41.4164	107.263	-20.6737	-34.5431	109.647	-23.9001	5.26183	120.29	-56.8031	-36.7151	100.982	-37.3417	-29.6876	107.042	-29.5813	1.39603	114.01	-77.692	-23.3697	93.7742	-57.9597	-28.9526	95.7515	-34.7876	-7.87383	154.845	-72.2098	10.4738	152.827	-73.5087	40.3203	168.857	-44.6441	25.0245	
